<?xml version="1.0" standalone="no"?>
<!DOCTYPE svg PUBLIC "-//W3C//DTD SVG 20010904//EN"
 "http://www.w3.org/TR/2001/REC-SVG-20010904/DTD/svg10.dtd">
<svg version="1.0" xmlns="http://www.w3.org/2000/svg"
 width="1024.000000pt" height="1024.000000pt" viewBox="0 0 1024.000000 1024.000000"
 preserveAspectRatio="xMidYMid meet">

<g transform="translate(0.000000,1024.000000) scale(0.100000,-0.100000)"
fill="#000000" stroke="none">
<path d="M0 5120 l0 -5120 5120 0 5120 0 0 5120 0 5120 -5120 0 -5120 0 0
-5120z m5000 2918 c-12 -18 -39 -70 -61 -115 -21 -46 -63 -122 -92 -170 -82
-135 -142 -241 -317 -563 -25 -47 -57 -103 -71 -125 -14 -22 -54 -94 -88 -160
-35 -66 -138 -257 -229 -425 -168 -311 -215 -398 -409 -760 -61 -113 -151
-279 -202 -369 -50 -90 -91 -166 -91 -168 0 -3 -15 -31 -34 -62 -18 -31 -52
-92 -76 -136 -23 -44 -54 -100 -68 -124 l-26 -44 -23 27 c-13 15 -21 31 -18
36 9 14 -43 43 -66 37 -18 -5 -21 -2 -17 23 3 16 0 26 -5 23 -5 -3 -7 9 -3 28
5 28 2 25 -20 -21 -21 -44 -89 -142 -73 -105 18 40 33 65 41 65 4 0 8 6 8 14
0 23 46 97 55 89 4 -5 5 -2 1 5 -5 8 12 48 41 100 27 48 66 121 88 162 21 41
59 111 85 155 49 83 276 497 340 620 20 39 61 115 92 170 30 55 85 156 120
225 197 380 303 576 375 690 15 24 35 63 44 86 9 23 26 55 37 71 11 16 32 53
47 83 27 58 96 181 155 277 19 32 51 86 70 121 32 58 40 65 85 81 28 9 88 41
135 72 94 61 183 117 188 118 2 1 -6 -14 -18 -31z m424 -335 c10 -21 55 -103
100 -183 46 -80 107 -190 136 -245 30 -55 74 -134 100 -175 26 -41 64 -106 85
-145 69 -128 187 -340 195 -350 4 -5 42 -73 85 -150 43 -77 115 -203 160 -280
142 -242 269 -463 388 -675 63 -113 135 -239 159 -280 25 -41 89 -154 143
-250 157 -280 265 -470 305 -535 90 -146 210 -383 204 -401 -5 -16 -4 -16 5
-4 6 8 11 12 11 8 0 -3 3 -14 7 -24 5 -12 3 -15 -6 -9 -8 4 -6 -4 4 -19 15
-23 16 -36 6 -120 -6 -52 -12 -161 -13 -243 -2 -142 -2 -144 -7 -49 -5 86 -8
97 -20 83 -7 -9 -17 -14 -22 -11 -5 3 -9 -4 -9 -15 0 -14 5 -19 15 -15 12 5
15 -4 15 -44 0 -28 -3 -53 -7 -55 -5 -3 -7 16 -6 41 2 39 1 42 -6 17 -7 -29
-7 -28 -15 18 -7 46 -26 66 -26 27 0 -11 -4 -20 -10 -20 -5 0 -10 9 -10 20 0
11 -4 20 -10 20 -5 0 -10 -9 -10 -20 0 -15 -7 -20 -25 -20 -18 0 -25 -5 -25
-20 0 -11 -4 -20 -10 -20 -5 0 -10 9 -10 20 0 11 -4 20 -10 20 -5 0 -10 -9
-10 -20 0 -17 -5 -19 -32 -13 -41 7 -46 12 -28 24 12 8 9 9 -10 7 -27 -3 -40
-42 -21 -61 6 -6 11 -18 11 -27 0 -13 -1 -13 -10 0 -8 13 -10 12 -10 -4 0 -20
0 -20 -15 0 -8 10 -15 16 -15 12 0 -15 25 -63 38 -72 12 -7 12 -10 1 -17 -10
-6 -6 -11 14 -18 30 -11 37 -46 15 -70 -11 -11 -10 -12 1 -6 11 6 13 4 8 -8
-9 -24 0 -21 14 4 9 17 8 20 -2 14 -8 -5 -10 -4 -5 3 4 7 16 12 28 12 16 0 19
-5 15 -23 -6 -21 -4 -22 38 -19 40 4 45 2 45 -17 0 -12 -4 -21 -10 -21 -5 0
-10 -6 -10 -14 0 -7 -6 -19 -14 -25 -15 -13 -29 -64 -15 -55 5 3 9 -4 9 -15 0
-11 5 -23 10 -26 12 -8 13 -3 0 29 -6 17 -6 26 0 26 9 0 14 -14 11 -32 0 -5 3
-8 8 -8 5 0 7 19 5 43 -2 23 -1 33 2 22 4 -11 11 -23 17 -27 7 -4 5 -14 -5
-30 -19 -29 -17 -60 5 -82 27 -27 20 -32 -8 -6 -34 32 -97 139 -89 152 4 6 2
8 -4 4 -16 -10 -134 202 -127 228 4 14 3 17 -3 8 -7 -10 -11 -10 -21 2 -7 8
-9 21 -5 27 4 8 3 9 -5 5 -6 -4 -14 0 -18 11 -3 10 -15 28 -26 40 -11 12 -16
27 -12 34 5 7 4 10 -2 6 -11 -7 -93 119 -168 258 -21 39 -70 124 -108 190 -38
66 -95 167 -127 225 -32 58 -73 132 -92 165 -87 150 -356 609 -408 695 -31 52
-84 142 -117 200 -33 58 -132 229 -220 380 -88 151 -181 316 -208 365 -26 50
-67 121 -91 158 -24 37 -58 95 -74 128 -17 33 -50 90 -74 127 -24 38 -63 104
-86 147 -24 44 -52 92 -62 107 l-19 27 -64 -125 c-36 -69 -72 -135 -79 -147
-8 -12 -41 -71 -73 -132 -33 -60 -90 -159 -127 -218 -36 -60 -91 -154 -120
-210 -30 -56 -72 -136 -93 -177 -22 -41 -64 -118 -94 -170 -72 -123 -231 -407
-304 -538 -31 -56 -68 -115 -81 -130 l-25 -27 17 29 c18 28 18 29 -1 19 -15
-8 -23 -7 -33 3 -10 11 -10 14 0 15 7 0 -11 9 -40 19 -74 25 -82 36 -35 46
l38 8 -50 7 c-47 7 -51 5 -78 -24 -15 -18 -25 -37 -23 -43 2 -6 -1 -11 -8 -11
-12 0 61 151 129 267 18 30 58 105 90 165 32 61 61 115 65 120 4 6 81 147 170
315 89 168 174 325 188 350 13 25 52 95 85 155 33 61 63 115 67 120 4 6 32 57
61 115 28 58 69 132 90 165 20 33 56 98 78 145 23 47 50 96 61 110 19 25 19
25 35 5 l17 -20 -7 20 c-16 47 -16 56 3 87 11 18 25 50 32 71 6 20 27 59 45
86 19 27 37 61 41 76 4 14 22 48 40 75 19 27 42 71 52 97 10 26 32 70 49 96
17 26 41 72 53 102 12 30 25 55 29 55 4 0 15 -17 25 -37z m-1260 -310 c-21
-37 -70 -122 -109 -188 -63 -104 -367 -662 -541 -990 -32 -60 -92 -166 -133
-235 -41 -69 -111 -195 -156 -280 -45 -85 -121 -225 -170 -310 -48 -85 -109
-200 -136 -254 l-48 -99 2 815 2 815 75 50 c41 28 156 99 255 158 99 59 187
113 195 120 8 7 47 29 85 50 39 21 84 48 100 60 31 24 247 154 357 215 34 19
105 63 158 97 52 34 96 58 98 53 2 -5 -13 -40 -34 -77z m2223 -73 c71 -42 164
-99 208 -125 44 -27 121 -74 170 -106 50 -32 122 -74 161 -93 l71 -35 7 -49
c9 -68 6 -246 -4 -236 -5 5 -10 25 -13 44 -3 25 -5 18 -7 -25 -1 -33 -4 -52
-7 -42 -4 15 -7 16 -31 4 -31 -16 -87 -37 -119 -44 -13 -3 -23 -9 -23 -14 0
-5 -18 -9 -40 -9 -34 0 -40 3 -46 26 l-7 27 -13 -24 c-7 -13 -14 -33 -14 -44
-1 -14 -3 -16 -7 -5 -3 8 -19 34 -34 59 -17 26 -25 49 -20 55 7 9 12 46 6 46
-2 0 -9 -8 -16 -17 -10 -11 -10 -14 -1 -9 6 4 12 2 12 -3 0 -6 -4 -11 -10 -11
-15 0 -40 57 -34 77 4 13 3 15 -4 5 -7 -10 -27 18 -77 110 -38 67 -94 168
-125 223 -32 55 -82 148 -112 206 -53 105 -53 106 -26 97 15 -5 85 -45 155
-88z m974 -565 c41 -19 78 -35 85 -35 15 0 26 -764 18 -1222 l-7 -355 -22 41
c-12 23 -43 78 -69 124 -89 155 -85 122 -92 719 -6 449 -1 763 11 763 2 0 36
-16 76 -35z m-654 -177 c-3 -7 -5 -2 -5 12 0 14 2 19 5 13 2 -7 2 -19 0 -25z
m39 -118 c0 -12 -4 -16 -9 -11 -5 5 -6 14 -3 20 10 15 12 14 12 -9z m-1206
-1070 c0 -13 -11 -13 -30 0 -12 8 -11 10 8 10 12 0 22 -4 22 -10z m354 -304
c49 -79 89 -156 84 -161 -6 -6 -235 -8 -888 -6 l-655 1 54 115 c40 83 60 115
75 118 12 3 306 4 654 4 l632 0 44 -71z m-1899 -76 c-1 -17 -5 -33 -10 -38 -4
-4 -4 4 0 17 5 16 4 21 -4 17 -15 -10 -14 7 1 22 16 16 15 17 13 -18z m-908
-82 c-3 -8 -6 -5 -6 6 -1 11 2 17 5 13 3 -3 4 -12 1 -19z m1023 -3 c11 -13 10
-14 -4 -9 -9 3 -16 10 -16 15 0 13 6 11 20 -6z m-7 -116 c-9 -16 -19 -26 -21
-24 -3 3 1 11 7 19 7 8 10 19 7 24 -3 5 1 9 9 9 12 0 11 -5 -2 -28z m1532
-208 c28 -4 -60 -5 -195 -3 -139 2 -262 -1 -285 -6 l-40 -10 44 -1 c55 -1 50
-9 -10 -14 -47 -5 -109 -27 -109 -39 0 -4 -8 -8 -18 -8 -10 0 -26 -6 -36 -13
-13 -9 -33 -11 -69 -6 -29 3 -55 5 -59 2 -14 -7 -9 -21 9 -25 11 -2 4 -9 -22
-23 -22 -11 -48 -28 -59 -37 -16 -15 -39 -18 -123 -18 -97 0 -103 1 -103 20 0
11 -7 23 -15 26 -8 3 -17 15 -20 25 -14 44 -73 88 -122 91 -15 1 -3 4 27 8
l55 7 -65 3 -65 3 65 7 c63 6 63 7 16 8 -56 2 -166 -18 -166 -30 0 -4 -7 -8
-15 -8 -7 0 -19 -8 -24 -17 -6 -10 -11 -14 -11 -9 0 6 -7 1 -14 -10 -12 -14
-11 -8 2 30 l17 48 47 -5 c26 -4 50 -2 53 4 7 11 1232 11 1310 0z m-1295 -31
c-8 -5 -22 -10 -30 -10 -13 0 -13 1 0 10 8 5 22 10 30 10 13 0 13 -1 0 -10z
m-145 -79 c3 -5 2 -12 -3 -15 -5 -3 -9 1 -9 9 0 17 3 19 12 6z m-35 -51 c-6
-11 -13 -20 -16 -20 -2 0 0 9 6 20 6 11 13 20 16 20 2 0 0 -9 -6 -20z m218
-47 c-15 -2 -42 -2 -60 0 -18 2 -6 4 27 4 33 0 48 -2 33 -4z m645 0 c-13 -2
-33 -2 -45 0 -13 2 -3 4 22 4 25 0 35 -2 23 -4z m1147 -273 c7 -19 47 -96 88
-170 42 -74 137 -256 212 -405 75 -148 149 -288 163 -309 32 -46 32 -48 10
-68 -18 -15 -161 -98 -169 -98 -2 0 -23 -12 -45 -26 -23 -14 -38 -20 -34 -12
3 7 0 5 -8 -4 -19 -24 -182 -130 -282 -184 l-82 -44 0 567 c0 313 -4 580 -9
596 l-9 27 -35 -18 c-20 -10 -51 -17 -70 -17 -20 0 -40 -7 -46 -15 -15 -19
-22 -849 -10 -1067 l8 -151 -38 -27 c-120 -82 -241 -154 -251 -150 -7 2 -12 0
-10 -6 3 -15 -186 -123 -252 -144 l-24 -7 6 83 c4 46 7 444 7 884 l0 800 434
0 434 0 12 -35z m-1647 -237 c-7 -2 -21 -2 -30 0 -10 3 -4 5 12 5 17 0 24 -2
18 -5z m2674 -415 c-3 -8 -6 -5 -6 6 -1 11 2 17 5 13 3 -3 4 -12 1 -19z m290
-95 c-3 -10 -5 -4 -5 12 0 17 2 24 5 18 2 -7 2 -21 0 -30z m-18 -40 c-1 -43
-2 -45 -9 -18 l-8 30 -1 -32 c-2 -47 -21 -41 -21 7 0 29 4 40 15 40 8 0 15 5
15 10 0 6 2 10 5 10 3 0 4 -21 4 -47z m18 -35 c-2 -13 -4 -5 -4 17 -1 22 1 32
4 23 2 -10 2 -28 0 -40z m0 -90 c-3 -7 -5 -2 -5 12 0 14 2 19 5 13 2 -7 2 -19
0 -25z m-25 -60 c2 -20 0 -34 -4 -32 -4 3 -8 24 -7 47 1 47 6 41 11 -15z m34
-46 c-11 -10 -15 4 -8 28 l7 25 3 -23 c2 -13 1 -26 -2 -30z m-106 8 c0 -5 -2
-10 -4 -10 -3 0 -8 5 -11 10 -3 6 -1 10 4 10 6 0 11 -4 11 -10z m87 -82 c-3
-7 -5 -2 -5 12 0 14 2 19 5 13 2 -7 2 -19 0 -25z m-47 -39 c10 -22 15 -27 21
-17 6 9 9 3 9 -17 0 -23 3 -27 10 -15 8 13 10 12 10 -3 0 -11 4 -15 12 -11 7
4 8 3 4 -4 -7 -12 8 -44 39 -80 17 -20 17 -22 2 -17 -16 7 -70 83 -127 180
-16 26 -18 35 -8 27 9 -7 22 -26 28 -43z"/>
<path d="M3211 4859 c15 -28 25 -30 36 -6 10 21 8 23 -17 23 -24 0 -27 -2 -19
-17z m29 1 c0 -5 -2 -10 -4 -10 -3 0 -8 5 -11 10 -3 6 -1 10 4 10 6 0 11 -4
11 -10z"/>
<path d="M7481 3694 c0 -11 3 -14 6 -6 3 7 2 16 -1 19 -3 4 -6 -2 -5 -13z"/>
<path d="M7252 3333 c-5 -10 -7 -24 -4 -32 3 -9 0 -11 -9 -7 -8 4 -6 1 3 -7
10 -8 16 -16 13 -19 -3 -2 1 -5 9 -5 9 0 12 7 9 21 -3 12 -5 31 -5 44 0 27 -4
28 -16 5z"/>
<path d="M3142 6030 c-40 -25 -67 -78 -58 -115 10 -39 59 -85 90 -85 17 0 43
15 71 41 57 52 61 91 14 144 -36 41 -68 45 -117 15z"/>
<path d="M6992 6780 c0 -14 2 -19 5 -12 2 6 2 18 0 25 -3 6 -5 1 -5 -13z"/>
<path d="M6667 6625 c-4 -8 -2 -17 2 -20 5 -2 11 4 14 15 6 23 -8 27 -16 5z"/>
</g>
</svg>
